<?xml version="1.0" standalone="no"?>
<!DOCTYPE svg PUBLIC "-//W3C//DTD SVG 20010904//EN"
 "http://www.w3.org/TR/2001/REC-SVG-20010904/DTD/svg10.dtd">
<svg version="1.0" xmlns="http://www.w3.org/2000/svg"
 width="2953.000000pt" height="1477.000000pt" viewBox="0 0 2953.000000 1477.000000"
 preserveAspectRatio="xMidYMid meet">

<g transform="translate(0.000000,1477.000000) scale(0.100000,-0.100000)"
fill="#000000" stroke="none">
<path d="M10390 11014 c-370 -44 -734 -208 -1084 -488 -132 -106 -405 -378
-590 -591 -265 -303 -585 -753 -916 -1290 -68 -110 -129 -206 -135 -213 -9
-10 -35 -7 -136 18 -348 85 -695 77 -1050 -25 -448 -129 -903 -450 -1204 -850
-102 -136 -324 -512 -340 -577 -15 -57 44 -99 140 -100 84 -1 118 24 175 127
59 106 216 337 303 445 156 195 309 322 570 475 360 210 725 304 1076 276 109
-9 247 -31 288 -46 9 -3 -12 -45 -58 -122 -40 -65 -246 -413 -459 -773 -615
-1041 -761 -1271 -1090 -1723 -357 -491 -575 -735 -890 -994 -367 -303 -657
-457 -979 -523 -341 -69 -769 -7 -1041 150 -305 177 -482 427 -562 793 -20 90
-22 132 -22 347 -1 276 13 393 69 616 87 342 246 619 486 849 251 240 505 362
798 383 109 8 105 3 69 100 -24 64 -76 125 -132 155 -36 19 -56 22 -166 21
-273 -2 -515 -91 -754 -278 -349 -274 -573 -714 -663 -1303 -23 -152 -23 -502
1 -638 74 -433 256 -798 527 -1060 232 -224 517 -356 885 -411 155 -24 483
-24 634 -1 298 46 576 142 832 289 262 150 395 255 664 523 437 437 728 837
1181 1630 199 348 276 492 628 1170 185 358 340 654 345 659 11 11 127 -66
226 -152 261 -225 476 -588 630 -1059 45 -140 128 -475 154 -628 11 -66 25
-137 31 -158 24 -89 118 -147 253 -155 97 -6 170 10 230 50 79 52 90 82 126
348 94 695 268 1601 445 2329 166 677 411 1406 682 2022 120 275 128 309 80
357 -26 25 -33 27 -125 28 -53 1 -113 0 -132 -2z m-288 -361 c-450 -664 -885
-2191 -1072 -3768 -33 -280 -27 -268 -65 -130 -198 722 -533 1238 -975 1504
-30 19 -57 35 -59 37 -5 5 99 195 235 431 346 596 700 1089 999 1389 210 211
396 349 619 460 101 50 313 132 344 133 7 1 -4 -24 -26 -56z"/>
<path d="M14960 9970 c-155 -15 -275 -51 -415 -123 -275 -143 -481 -400 -562
-704 -23 -87 -27 -117 -27 -268 -1 -148 2 -182 23 -259 53 -204 153 -380 296
-521 227 -226 517 -337 844 -322 509 23 941 397 1036 900 30 159 16 380 -36
538 -88 272 -297 513 -558 644 -183 92 -407 135 -601 115z"/>
<path d="M23960 9973 c-313 -8 -943 -44 -1095 -62 l-60 -7 65 -7 c260 -30 690
-109 970 -178 647 -159 1037 -362 1149 -599 35 -75 37 -192 3 -261 -116 -236
-542 -500 -1303 -807 -549 -222 -1104 -412 -2584 -886 -489 -156 -1124 -364
-1410 -461 -956 -325 -1262 -424 -1712 -555 l-206 -60 -3533 0 -3534 0 0 -70
0 -70 8200 0 8200 0 0 70 0 70 -465 0 -465 0 -20 33 c-95 152 -219 458 -255
627 -49 230 -22 455 77 655 90 180 168 275 509 615 314 314 406 427 500 615
94 190 137 405 109 555 -60 328 -455 557 -1175 680 -505 87 -1211 124 -1965
103z m1300 -377 c407 -64 618 -144 760 -286 164 -163 220 -386 145 -575 -71
-181 -194 -346 -434 -585 -235 -235 -352 -330 -749 -609 -333 -234 -609 -508
-785 -776 -115 -177 -226 -430 -277 -632 l-11 -43 -1552 1 -1552 1 266 132
c428 213 922 427 1459 633 752 288 965 374 1340 540 843 374 1467 745 1790
1065 207 205 277 351 268 560 -4 85 -9 105 -41 173 -43 91 -116 167 -210 219
-71 40 -295 117 -492 170 -155 41 -134 45 75 12z"/>
<path d="M10863 9947 l-163 -20 0 -751 c0 -478 4 -775 11 -816 46 -285 218
-482 489 -560 114 -33 305 -38 435 -11 269 55 466 230 542 481 15 49 17 142
20 878 l4 822 -38 -1 c-21 0 -112 -10 -203 -22 l-165 -22 -5 -755 c-5 -753 -5
-755 -28 -815 -30 -80 -68 -124 -137 -160 -55 -28 -65 -30 -174 -30 -96 0
-124 4 -162 21 -111 52 -163 138 -179 301 -5 54 -10 410 -10 791 l0 692 -37
-1 c-21 -1 -111 -11 -200 -22z"/>
<path d="M17245 9963 c-508 -69 -879 -486 -911 -1026 -23 -361 129 -724 389
-932 270 -216 662 -291 964 -185 31 11 59 24 63 30 3 5 16 108 28 227 13 120
25 231 28 247 l6 29 -65 -47 c-215 -154 -447 -166 -668 -36 -318 187 -424 624
-234 967 80 143 237 268 390 308 165 43 400 -2 533 -102 40 -30 40 -44 2 228
-16 118 -30 217 -30 220 0 12 -96 47 -172 63 -71 15 -245 20 -323 9z"/>
<path d="M18273 9947 l-163 -20 0 -1053 0 -1054 538 0 537 0 48 188 c26 103
47 190 47 195 0 4 -171 7 -380 7 l-380 0 0 880 0 880 -42 -1 c-24 -1 -116 -11
-205 -22z"/>
<path d="M19592 9947 l-163 -20 3 -796 c4 -890 0 -838 77 -996 114 -232 354
-365 661 -365 234 0 421 71 567 217 57 57 81 90 117 165 24 51 50 116 57 143
9 38 13 253 16 863 l4 812 -23 0 c-13 0 -105 -10 -205 -21 l-183 -22 0 -713
c0 -758 -3 -812 -49 -902 -27 -54 -76 -101 -131 -126 -37 -17 -64 -21 -160
-21 -99 0 -122 3 -166 23 -97 44 -153 125 -173 252 -7 41 -11 332 -11 798 l0
732 -37 -1 c-21 -1 -111 -10 -201 -22z"/>
<path d="M12441 9893 c-53 -208 -83 -321 -87 -335 -5 -17 13 -18 280 -18 l286
0 0 -869 c0 -479 3 -872 8 -874 5 -3 387 18 400 22 1 1 2 388 2 861 l0 860
265 0 265 0 -2 193 -3 192 -702 3 -702 2 -10 -37z"/>
<path d="M21290 8876 l0 -1056 443 0 c277 0 466 4 503 11 215 40 393 181 462
368 30 82 41 235 22 319 -35 159 -140 284 -307 367 l-67 33 40 20 c144 74 235
230 236 407 2 168 -53 308 -161 415 -77 76 -140 112 -248 142 -73 20 -106 22
-500 26 l-423 4 0 -1056z m734 643 c21 -7 60 -33 87 -57 122 -109 93 -295 -58
-368 -55 -27 -67 -29 -210 -33 l-153 -3 0 242 0 242 148 -5 c81 -3 164 -11
186 -18z m87 -808 c84 -26 132 -72 154 -143 44 -149 -9 -281 -133 -329 -50
-20 -80 -23 -249 -27 l-193 -4 0 267 0 268 178 -6 c139 -4 191 -10 243 -26z"/>
<path d="M16124 7578 c-36 -56 -68 -108 -71 -115 -4 -10 12 -13 69 -13 l73 0
115 115 115 115 -118 0 -117 0 -66 -102z"/>
<path d="M11963 7399 c-194 -32 -368 -184 -435 -377 -18 -53 -23 -89 -23 -172
0 -123 23 -203 84 -297 199 -306 620 -349 876 -89 105 107 157 235 157 386 0
154 -52 280 -163 391 -129 130 -312 189 -496 158z m242 -233 c70 -32 140 -102
173 -174 23 -48 27 -71 27 -142 0 -76 -4 -93 -33 -152 -38 -77 -91 -128 -172
-166 -81 -39 -191 -38 -277 2 -106 49 -181 145 -202 259 -32 174 87 352 266
397 59 14 158 4 218 -24z"/>
<path d="M13160 7395 c-194 -44 -352 -183 -418 -369 -35 -98 -36 -250 -3 -346
85 -245 322 -405 571 -386 127 9 284 64 372 129 l28 21 0 248 0 248 -224 0
-224 0 -28 -82 c-15 -46 -29 -89 -31 -95 -4 -9 33 -13 149 -15 l153 -3 3 -92
3 -92 -38 -20 c-164 -83 -340 -58 -453 66 -69 76 -93 144 -88 253 7 144 78
259 197 317 49 24 68 28 146 28 77 0 98 -4 148 -27 32 -15 78 -42 103 -60 40
-29 47 -31 57 -17 7 8 33 43 60 76 26 34 47 65 47 70 -1 12 -78 67 -135 96
-117 58 -275 79 -395 52z"/>
<path d="M14315 7403 c-146 -19 -306 -122 -391 -250 -63 -94 -87 -181 -87
-303 0 -87 4 -117 25 -176 91 -256 349 -414 611 -376 207 30 385 177 455 376
20 57 25 90 25 171 1 164 -45 276 -158 391 -127 128 -305 190 -480 167z m232
-243 c69 -34 129 -96 165 -168 19 -39 23 -63 23 -142 0 -85 -3 -101 -29 -153
-36 -71 -99 -130 -174 -165 -46 -22 -72 -26 -137 -27 -71 0 -88 4 -147 33 -82
40 -149 111 -178 190 -29 75 -25 195 8 263 88 182 292 256 469 169z"/>
<path d="M15902 6868 c-144 -293 -262 -536 -262 -539 0 -4 39 -12 88 -19 48
-6 94 -14 103 -16 12 -3 31 29 79 131 l63 135 206 0 206 -1 61 -132 c48 -103
66 -132 80 -130 79 6 194 27 194 35 0 14 -543 1068 -550 1068 -3 0 -124 -240
-268 -532z m325 30 c29 -68 55 -131 59 -140 6 -17 -4 -18 -110 -18 -64 0 -116
3 -116 8 -1 12 105 272 110 272 3 0 29 -55 57 -122z"/>
<path d="M10690 6849 l0 -530 258 3 c288 3 307 7 390 82 75 68 107 200 73 300
-17 49 -71 109 -128 143 -23 13 -43 26 -43 28 0 1 17 14 39 28 116 77 121 285
10 396 -72 72 -115 81 -374 81 l-225 0 0 -531z m397 318 c80 -42 82 -161 3
-202 -19 -10 -57 -15 -110 -15 l-80 0 0 121 0 122 78 -5 c44 -3 91 -12 109
-21z m32 -401 c53 -19 76 -57 75 -122 0 -47 -4 -59 -30 -84 -33 -34 -99 -50
-200 -50 l-64 0 0 135 0 135 93 -1 c50 0 108 -6 126 -13z"/>
<path d="M15027 7308 c-10 -40 -20 -83 -23 -95 -6 -22 -5 -22 137 -25 l144 -3
3 -440 2 -440 78 3 c42 1 87 5 100 7 l22 5 0 435 0 435 135 0 135 0 0 95 0 95
-358 0 -358 0 -17 -72z"/>
<path d="M13626 5724 c-9 -8 -16 -19 -16 -24 0 -5 -3 -15 -6 -24 -9 -22 25
-21 41 1 12 17 15 17 49 0 20 -9 45 -17 55 -17 21 0 46 26 54 58 4 17 1 22
-13 22 -11 0 -23 -8 -29 -17 -9 -17 -11 -17 -45 0 -45 21 -70 22 -90 1z"/>
<path d="M7640 5602 c-46 -25 -72 -71 -72 -127 0 -63 29 -104 102 -146 102
-57 120 -75 120 -120 0 -61 -33 -89 -105 -89 -49 0 -60 4 -86 29 -22 22 -29
39 -29 66 0 34 -2 37 -22 31 -13 -3 -27 -6 -32 -6 -13 0 2 -90 20 -117 28 -43
73 -63 144 -63 108 0 170 56 170 153 0 74 -19 100 -119 158 -117 68 -136 106
-82 160 56 56 159 25 176 -52 6 -25 11 -30 33 -27 23 3 27 7 24 33 -4 39 -30
83 -64 108 -40 30 -132 34 -178 9z"/>
<path d="M9855 5601 c-86 -40 -144 -142 -152 -269 -11 -167 61 -272 187 -272
84 0 143 41 190 134 30 60 35 80 38 155 5 106 -9 160 -51 208 -56 64 -134 80
-212 44z m145 -67 c47 -40 62 -77 62 -155 0 -92 -25 -161 -76 -215 -39 -41
-46 -44 -93 -44 -58 0 -94 26 -119 85 -34 82 -8 228 54 297 59 66 118 77 172
32z"/>
<path d="M12744 5606 c-72 -32 -100 -121 -62 -196 18 -35 37 -53 88 -82 110
-64 120 -74 120 -117 0 -59 -37 -91 -107 -91 -47 0 -59 4 -84 29 -19 20 -29
40 -29 60 0 35 -8 42 -38 34 -47 -12 -16 -118 47 -160 46 -31 150 -32 199 -3
47 29 72 76 72 135 0 76 -17 96 -147 173 -79 46 -94 71 -73 121 33 81 176 59
195 -30 5 -24 11 -29 28 -27 55 8 17 115 -53 150 -41 21 -113 23 -156 4z"/>
<path d="M17234 5601 c-141 -64 -204 -324 -111 -462 37 -55 81 -79 147 -79 93
0 167 62 210 177 23 61 27 182 9 244 -35 114 -149 168 -255 120z m146 -67 c46
-39 60 -74 60 -152 0 -98 -22 -164 -74 -217 -39 -41 -47 -45 -90 -45 -58 0
-91 20 -118 73 -27 54 -22 191 9 252 56 107 146 145 213 89z"/>
<path d="M18245 5602 c-91 -43 -146 -142 -153 -273 -5 -104 13 -170 61 -218
38 -40 65 -51 123 -51 61 0 102 19 148 70 59 65 79 120 84 227 4 81 2 97 -21
146 -47 102 -147 143 -242 99z m156 -78 c40 -38 52 -84 47 -173 -8 -134 -80
-231 -170 -231 -82 0 -128 64 -128 177 0 83 11 125 48 184 52 82 142 101 203
43z"/>
<path d="M19814 5606 c-65 -29 -97 -104 -75 -176 13 -44 51 -80 124 -116 101
-52 124 -108 68 -165 -25 -25 -37 -29 -84 -29 -68 0 -103 28 -113 90 -5 30
-11 40 -21 36 -8 -4 -20 -6 -27 -6 -17 0 -4 -89 19 -123 23 -36 75 -57 140
-57 103 0 164 50 173 140 7 77 -30 126 -137 180 -88 44 -114 99 -72 151 16 20
28 24 76 24 50 0 60 -3 81 -28 13 -15 24 -39 24 -53 0 -22 4 -25 28 -22 19 2
28 9 30 25 5 32 -26 90 -60 114 -37 27 -131 35 -174 15z"/>
<path d="M22572 5600 c-81 -37 -135 -123 -152 -239 -24 -172 51 -301 177 -301
65 0 92 10 141 54 78 71 121 230 93 343 -33 134 -144 195 -259 143z m136 -60
c79 -48 95 -201 35 -319 -35 -69 -80 -101 -140 -101 -38 0 -51 6 -78 33 -47
47 -60 103 -47 195 22 160 132 252 230 192z"/>
<path d="M23423 5599 c-85 -42 -142 -143 -150 -267 -11 -167 61 -272 187 -272
79 0 141 41 186 124 56 102 65 248 21 333 -49 93 -152 128 -244 82z m142 -59
c134 -83 58 -420 -96 -420 -86 0 -139 67 -139 176 0 113 41 201 115 245 39 24
80 24 120 -1z"/>
<path d="M23915 5607 c-41 -19 -103 -90 -128 -146 -14 -33 -22 -75 -25 -146
-4 -89 -2 -107 18 -153 31 -72 75 -102 150 -102 82 0 139 40 184 127 22 44 20
60 -9 65 -22 5 -28 0 -44 -36 -42 -96 -138 -127 -200 -66 -36 36 -44 74 -39
173 2 58 10 87 33 132 36 70 68 96 126 102 55 6 93 -21 111 -78 10 -34 15 -39
32 -35 12 3 24 6 27 6 12 0 -9 73 -28 99 -34 45 -70 64 -125 68 -31 2 -65 -2
-83 -10z"/>
<path d="M24531 5598 c-90 -44 -146 -163 -146 -308 0 -149 61 -230 172 -230
79 0 138 39 176 115 30 62 30 73 0 77 -25 3 -31 -3 -49 -43 -29 -62 -65 -89
-121 -89 -103 0 -149 129 -103 291 22 78 94 149 152 149 59 0 87 -25 112 -103
4 -14 12 -17 28 -11 32 9 32 10 20 53 -32 106 -138 150 -241 99z"/>
<path d="M25480 5602 c-76 -38 -103 -134 -57 -203 12 -19 59 -56 105 -84 46
-28 87 -57 93 -65 18 -29 10 -71 -20 -101 -26 -25 -37 -29 -86 -29 -68 0 -101
26 -111 89 -6 38 -8 40 -33 34 -35 -8 -33 -4 -21 -57 20 -91 66 -126 165 -126
76 0 120 22 152 77 21 36 25 53 20 90 -6 58 -30 90 -98 130 -115 67 -129 80
-129 117 0 18 9 44 19 57 16 20 28 24 76 24 50 0 60 -3 81 -28 13 -15 24 -39
24 -53 0 -22 4 -25 28 -22 36 4 40 34 12 88 -36 71 -142 101 -220 62z"/>
<path d="M26484 5601 c-152 -69 -210 -393 -89 -500 42 -37 70 -45 135 -39 60
6 109 41 144 101 40 71 41 84 6 89 -26 4 -31 1 -41 -29 -6 -18 -25 -49 -44
-68 -28 -30 -39 -35 -78 -35 -89 0 -134 71 -125 200 10 128 77 228 160 237 37
4 49 1 75 -21 17 -15 34 -40 38 -56 8 -36 15 -41 44 -33 19 5 21 10 15 37 -23
111 -134 165 -240 117z"/>
<path d="M6960 5603 c0 -5 -20 -125 -45 -268 -25 -143 -45 -263 -45 -267 0 -5
14 -8 30 -8 17 0 30 3 30 8 0 4 20 124 45 267 25 143 45 263 45 268 0 4 -13 7
-30 7 -16 0 -30 -3 -30 -7z"/>
<path d="M7090 5343 c-24 -148 -43 -270 -42 -273 2 -5 52 -13 52 -8 0 2 18
104 39 227 l38 224 35 -104 c113 -338 118 -349 149 -349 16 0 29 1 29 3 0 1
20 119 45 262 25 143 45 266 45 273 0 9 -10 12 -27 10 l-28 -3 -33 -195 c-18
-107 -35 -206 -38 -218 -4 -21 -52 104 -146 386 -10 27 -16 32 -42 32 l-32 0
-44 -267z"/>
<path d="M7966 5588 c-3 -13 -6 -26 -6 -30 0 -5 33 -8 74 -8 l73 0 -38 -222
c-47 -274 -47 -270 -12 -266 l27 3 41 240 41 240 74 5 c73 5 75 6 78 33 l3 27
-174 0 c-173 0 -175 0 -181 -22z"/>
<path d="M8386 5593 c-8 -27 -86 -497 -86 -517 0 -13 7 -17 27 -14 l28 3 42
245 c23 135 44 257 47 273 5 24 3 27 -24 27 -19 0 -30 -6 -34 -17z"/>
<path d="M8527 5603 c-4 -3 -7 -17 -7 -30 0 -22 3 -23 70 -23 60 0 70 -2 70
-17 -1 -10 -18 -117 -39 -238 -22 -121 -37 -223 -34 -227 2 -5 15 -8 28 -8 27
0 22 -19 71 268 l37 222 74 0 c40 0 73 3 73 8 0 4 3 17 6 30 l6 22 -174 0
c-96 0 -178 -3 -181 -7z"/>
<path d="M8911 5411 c-34 -202 -34 -242 -4 -289 40 -63 157 -84 224 -39 41 28
76 77 89 128 11 41 70 365 70 387 0 7 -12 12 -28 12 l-29 0 -32 -186 c-18
-102 -39 -204 -48 -225 -22 -56 -55 -79 -113 -79 -42 0 -52 4 -74 31 -14 17
-26 43 -26 57 0 15 14 106 30 202 16 96 30 181 30 188 0 7 -12 12 -28 12 l-28
0 -33 -199z"/>
<path d="M9360 5596 c0 -8 -3 -21 -6 -30 -5 -14 5 -16 70 -16 74 0 76 -1 71
-22 -10 -43 -75 -433 -75 -451 0 -14 6 -18 28 -15 l27 3 40 240 41 240 74 5
c73 5 75 6 78 33 l3 27 -175 0 c-145 0 -176 -2 -176 -14z"/>
<path d="M10600 5608 c0 -1 -20 -120 -45 -263 -25 -143 -45 -266 -45 -274 0
-11 21 -13 114 -9 137 6 183 26 234 102 47 70 65 142 60 239 -4 95 -25 146
-72 180 -26 19 -47 22 -138 25 -60 2 -108 2 -108 0z m194 -68 c44 -16 66 -65
66 -146 0 -122 -40 -213 -111 -249 -29 -16 -169 -21 -169 -7 0 4 16 97 35 207
19 110 35 201 35 203 0 7 122 1 144 -8z"/>
<path d="M11050 5603 c0 -5 -20 -125 -45 -268 -25 -143 -45 -263 -45 -267 0
-5 77 -8 170 -8 129 0 170 3 170 13 0 6 3 22 6 35 l6 22 -142 0 -142 0 6 28
c3 15 11 57 17 95 l11 67 128 0 128 0 4 30 5 30 -128 0 c-98 0 -127 3 -124 13
2 6 9 44 15 84 l12 72 131 3 132 3 3 28 3 27 -160 0 c-89 0 -161 -3 -161 -7z"/>
<path d="M11816 5593 c-8 -29 -86 -492 -86 -513 0 -20 6 -20 168 -18 l167 3 3
33 3 32 -135 0 c-160 0 -149 -17 -110 167 4 22 9 23 132 25 l127 3 3 28 3 27
-125 0 c-95 0 -126 3 -125 13 0 6 6 44 12 82 l12 70 133 3 c105 2 132 5 132
16 0 8 3 21 6 30 5 14 -12 16 -154 16 -144 0 -161 -2 -166 -17z"/>
<path d="M12191 5353 c-23 -142 -43 -265 -44 -273 -1 -9 8 -16 24 -18 30 -3
28 -12 82 317 l22 133 37 -108 c20 -60 55 -162 78 -226 41 -114 43 -118 71
-118 16 0 29 3 29 8 0 4 20 124 45 267 25 143 45 263 45 268 0 4 -13 7 -28 7
l-28 0 -33 -197 c-46 -285 -42 -268 -57 -208 -7 28 -41 130 -76 227 l-63 178
-31 0 -30 0 -43 -257z"/>
<path d="M13058 5343 c-25 -148 -44 -271 -41 -275 2 -5 78 -8 167 -8 161 0
164 0 170 23 13 47 14 47 -134 47 l-139 0 6 33 c3 17 11 59 17 92 l12 60 126
3 c120 2 126 4 132 25 3 12 6 25 6 30 0 4 -56 7 -125 7 -142 0 -132 -9 -114
101 l12 69 133 0 134 0 0 30 0 30 -158 0 -158 0 -46 -267z"/>
<path d="M13520 5606 c0 -3 -20 -123 -45 -268 -25 -145 -45 -266 -45 -270 0
-5 11 -8 24 -8 14 0 27 3 29 8 4 6 22 107 73 412 5 30 12 14 66 -140 102 -298
92 -275 121 -278 16 -2 29 2 32 10 3 7 23 121 45 253 23 132 44 250 47 263 4
19 1 22 -25 22 -30 0 -30 -1 -45 -82 -8 -46 -25 -147 -38 -224 l-23 -142 -47
142 c-98 289 -103 301 -138 304 -17 2 -31 1 -31 -2z"/>
<path d="M14076 5578 c-8 -18 -64 -140 -125 -271 -61 -131 -111 -240 -111
-243 0 -2 14 -4 31 -4 28 0 33 5 66 80 l36 80 93 0 92 0 7 -57 c11 -94 15
-103 41 -103 31 0 31 -1 -6 278 -40 295 -33 272 -75 272 -30 0 -37 -5 -49 -32z
m53 -143 c7 -55 14 -112 17 -127 l6 -28 -75 0 -75 0 54 119 c30 66 54 125 54
132 0 7 2 10 4 8 2 -2 9 -49 15 -104z"/>
<path d="M14386 5583 c-12 -59 -86 -501 -86 -513 0 -6 11 -10 27 -8 l28 3 32
190 c18 105 35 205 39 223 4 29 15 6 74 -165 94 -274 85 -255 118 -251 l27 3
41 240 c23 132 44 255 47 273 5 30 4 32 -23 32 -25 0 -30 -5 -35 -32 -3 -18
-21 -121 -39 -227 l-32 -195 -14 50 c-11 40 -108 319 -135 387 -5 10 -18 17
-35 17 -23 0 -29 -5 -34 -27z"/>
<path d="M14806 5594 c-16 -41 -10 -43 110 -46 l115 -3 -145 -213 c-107 -156
-146 -221 -146 -243 l0 -29 160 0 c167 0 165 -1 172 45 3 19 -4 20 -123 25
l-126 5 142 206 c79 113 146 220 150 237 l7 32 -155 0 c-132 0 -156 -2 -161
-16z"/>
<path d="M15219 5344 c-68 -146 -125 -270 -127 -275 -2 -5 11 -9 28 -9 30 0
34 5 68 80 l37 80 91 0 92 0 6 -47 c16 -110 17 -113 42 -113 12 0 25 3 27 8 2
4 -12 126 -32 272 l-36 265 -36 3 -36 3 -124 -267z m167 59 c7 -65 14 -119 14
-120 0 -2 -31 -3 -70 -3 -38 0 -70 3 -70 7 0 12 104 242 108 238 2 -2 10 -57
18 -122z"/>
<path d="M15902 5347 c-67 -144 -122 -268 -122 -275 0 -16 45 -16 57 1 5 6 23
42 39 79 l29 67 91 1 92 0 5 -32 c3 -18 9 -54 13 -80 6 -45 8 -48 36 -48 28 0
30 2 25 28 -3 15 -20 138 -38 275 l-33 247 -36 0 -36 0 -122 -263z m162 83 c4
-41 9 -92 13 -112 l6 -38 -73 0 c-41 0 -70 4 -68 10 23 66 105 235 109 226 4
-6 9 -45 13 -86z"/>
<path d="M16291 5413 c-19 -110 -31 -211 -28 -231 13 -76 71 -122 155 -122 88
0 145 45 176 137 13 39 76 376 76 406 0 4 -13 7 -30 7 -16 0 -30 -3 -30 -7 0
-33 -63 -367 -76 -400 -22 -59 -55 -83 -114 -83 -42 0 -52 4 -74 31 -15 17
-26 43 -26 59 0 15 13 106 30 202 16 95 30 179 30 186 0 7 -12 12 -28 12 l-29
0 -32 -197z"/>
<path d="M16736 5588 c-3 -13 -6 -26 -6 -30 0 -5 33 -8 74 -8 l73 0 -38 -222
c-47 -275 -47 -270 -12 -266 l28 3 40 240 41 240 75 5 c72 5 74 6 77 33 l3 27
-174 0 c-173 0 -175 0 -181 -22z"/>
<path d="M17625 5588 c-8 -34 -85 -505 -85 -518 0 -6 12 -10 28 -8 27 3 27 5
49 133 13 72 29 171 36 220 l13 90 19 -140 c41 -320 37 -300 69 -300 27 0 32
8 112 180 46 99 91 194 99 210 l16 30 -6 -27 c-13 -69 -65 -374 -65 -386 0 -9
10 -12 28 -10 l27 3 42 250 c53 316 52 297 7 293 l-37 -3 -93 -205 c-52 -113
-100 -218 -107 -233 -11 -26 -15 -8 -41 190 -15 120 -30 226 -32 236 -4 12
-16 17 -39 17 -28 0 -36 -5 -40 -22z"/>
<path d="M18600 5591 c0 -10 18 -132 40 -271 22 -139 40 -255 40 -257 0 -2 15
-3 32 -1 32 3 34 5 154 273 110 242 120 270 102 273 -11 2 -25 1 -32 -1 -7 -3
-56 -106 -111 -228 -54 -123 -99 -225 -99 -226 -1 -1 -17 95 -35 215 -19 119
-36 223 -38 230 -8 20 -53 15 -53 -7z"/>
<path d="M19056 5593 c-8 -29 -86 -492 -86 -514 0 -16 5 -20 27 -17 l28 3 40
240 c23 132 44 255 48 273 6 30 5 32 -23 32 -19 0 -30 -6 -34 -17z"/>
<path d="M19220 5603 c0 -5 -20 -125 -45 -268 -25 -143 -45 -263 -45 -268 0
-4 66 -6 148 -5 l147 3 3 33 3 32 -116 0 -117 0 6 28 c10 46 76 432 76 442 0
6 -13 10 -30 10 -16 0 -30 -3 -30 -7z"/>
<path d="M19576 5583 c-11 -53 -86 -498 -86 -510 0 -14 46 -18 54 -5 2 4 23
115 45 247 23 132 44 252 47 268 5 25 3 27 -24 27 -25 0 -31 -5 -36 -27z"/>
<path d="M20137 5603 c-4 -3 -7 -17 -7 -30 0 -22 3 -23 70 -23 41 0 70 -4 70
-10 0 -10 -65 -398 -76 -452 -5 -26 -3 -28 24 -28 25 0 31 5 36 28 7 34 76
448 76 456 0 3 34 6 75 6 58 0 75 3 75 14 0 8 3 21 6 30 5 14 -13 16 -168 16
-96 0 -178 -3 -181 -7z"/>
<path d="M20492 5346 c-67 -145 -122 -269 -122 -275 0 -8 11 -11 28 -9 23 3
32 14 64 81 l37 77 90 0 90 0 6 -37 c20 -121 19 -118 49 -121 27 -3 28 -2 23
25 -2 15 -20 139 -38 276 l-33 247 -35 0 -36 0 -123 -264z m161 102 c4 -40 9
-94 13 -120 l7 -48 -72 0 c-39 0 -71 2 -71 4 0 2 23 54 50 115 28 61 50 116
50 122 0 5 4 8 9 5 4 -3 11 -38 14 -78z"/>
<path d="M21163 5598 c3 -7 34 -83 70 -168 l65 -155 -18 -100 c-10 -55 -16
-103 -13 -107 2 -5 15 -8 28 -8 25 0 24 -2 45 120 15 87 18 93 126 267 52 83
94 154 94 157 0 3 -15 6 -32 6 -36 0 -44 -11 -150 -184 l-48 -80 -13 33 c-6
18 -30 77 -52 130 -39 92 -42 96 -74 99 -25 3 -32 0 -28 -10z"/>
<path d="M21955 5598 c-6 -19 -85 -505 -85 -523 0 -12 7 -15 27 -13 l26 3 36
219 36 219 18 -149 c10 -82 24 -180 30 -219 11 -64 14 -70 38 -73 24 -3 30 7
97 150 120 258 133 284 128 258 -22 -111 -57 -311 -62 -356 -7 -53 -6 -54 19
-54 19 0 28 6 32 23 5 21 85 513 85 522 0 3 -17 5 -37 5 l-38 0 -44 -98 c-24
-53 -72 -159 -107 -235 l-62 -139 -6 44 c-17 126 -56 421 -56 424 0 11 -71 2
-75 -8z"/>
<path d="M22930 5596 c0 -8 -3 -21 -6 -30 -5 -14 5 -16 70 -16 74 0 76 -1 71
-22 -10 -47 -75 -438 -75 -453 0 -12 8 -15 28 -13 l27 3 42 240 c23 132 42
241 43 243 0 1 34 2 75 2 l75 0 0 30 0 30 -175 0 c-144 0 -175 -2 -175 -14z"/>
<path d="M24231 5353 c-23 -142 -43 -265 -44 -273 -1 -9 8 -16 25 -18 25 -3
27 0 37 50 18 91 81 467 81 483 0 10 -10 15 -28 15 l-28 0 -43 -257z"/>
<path d="M24890 5605 c0 -3 -20 -123 -45 -266 -25 -143 -45 -265 -45 -270 0
-6 59 -8 148 -7 l147 3 3 33 3 32 -115 0 c-64 0 -116 1 -116 3 0 1 18 106 40
232 22 127 40 233 40 238 0 4 -13 7 -30 7 -16 0 -30 -2 -30 -5z"/>
<path d="M25245 5588 c-11 -49 -85 -495 -85 -512 0 -13 7 -17 28 -14 l27 3 42
240 c22 132 44 255 46 273 5 30 4 32 -23 32 -23 0 -31 -5 -35 -22z"/>
<path d="M25800 5580 l0 -30 70 0 c39 0 70 -3 70 -7 0 -5 -18 -111 -40 -238
-22 -126 -40 -233 -40 -237 0 -5 14 -8 30 -8 17 0 30 3 30 8 0 4 18 111 40
237 22 127 40 233 40 238 0 4 34 7 75 7 58 0 75 3 75 14 0 8 3 21 6 30 5 14
-14 16 -175 16 l-181 0 0 -30z"/>
<path d="M26220 5601 c0 -5 -20 -127 -45 -270 -25 -143 -45 -263 -45 -266 0
-3 14 -5 30 -5 17 0 30 2 30 5 0 3 20 123 45 266 25 143 45 265 45 270 0 5
-13 9 -30 9 -16 0 -30 -4 -30 -9z"/>
<path d="M26845 5350 c-66 -142 -121 -266 -123 -274 -3 -12 5 -16 26 -16 27 0
32 6 65 80 l36 80 91 0 c49 0 90 -1 91 -2 0 -2 6 -37 12 -78 12 -72 13 -75 41
-78 28 -4 29 -3 23 35 -3 21 -20 145 -38 276 l-32 237 -36 0 -36 -1 -120 -259z
m170 -2 l7 -68 -72 0 c-39 0 -70 4 -68 9 2 4 28 64 58 131 l55 123 6 -64 c3
-35 9 -94 14 -131z"/>
</g>
</svg>
